<?xml version="1.0" encoding="UTF-8" standalone="no"?>
<!DOCTYPE svg PUBLIC "-//W3C//DTD SVG 1.1//EN"
 "http://www.w3.org/Graphics/SVG/1.1/DTD/svg11.dtd">
<!-- Generated by graphviz version 2.47.3 (20210619.1520)
 -->
<!-- Title: dependencies Pages: 1 -->
<svg width="294pt" height="247pt"
 viewBox="0.00 0.00 294.00 246.80" xmlns="http://www.w3.org/2000/svg" xmlns:xlink="http://www.w3.org/1999/xlink">
<g id="graph0" class="graph" transform="scale(1 1) rotate(0) translate(4 242.8)">
<title>dependencies</title>
<polygon fill="white" stroke="transparent" points="-4,4 -4,-242.8 290,-242.8 290,4 -4,4"/>
<text text-anchor="middle" x="143" y="-8.2" font-family="sans-serif" font-size="14.00">dependencies</text>
<g id="clust1" class="cluster">
<title>cluster_CoreModule</title>
<polygon fill="none" stroke="black" stroke-dasharray="1,5" points="8,-32.8 8,-230.8 278,-230.8 278,-32.8 8,-32.8"/>
</g>
<g id="clust5" class="cluster">
<title>cluster_CoreModule_exports</title>
<polygon fill="none" stroke="black" points="16,-170.8 16,-222.8 270,-222.8 270,-170.8 16,-170.8"/>
</g>
<g id="clust2" class="cluster">
<title>cluster_CoreModule_declarations</title>
<polygon fill="none" stroke="black" points="140,-40.8 140,-92.8 270,-92.8 270,-40.8 140,-40.8"/>
</g>
<g id="clust4" class="cluster">
<title>cluster_CoreModule_imports</title>
<polygon fill="none" stroke="black" points="16,-40.8 16,-92.8 132,-92.8 132,-40.8 16,-40.8"/>
</g>
<!-- LoginComponent -->
<g id="node1" class="node">
<title>LoginComponent</title>
<polygon fill="#ffffb3" stroke="black" points="262.28,-84.8 147.72,-84.8 147.72,-48.8 262.28,-48.8 262.28,-84.8"/>
<text text-anchor="middle" x="205" y="-62.6" font-family="Times,serif" font-size="14.00">LoginComponent</text>
</g>
<!-- CoreModule -->
<g id="node2" class="node">
<title>CoreModule</title>
<polygon fill="#8dd3c7" stroke="black" points="187.26,-149.8 184.26,-153.8 163.26,-153.8 160.26,-149.8 100.74,-149.8 100.74,-113.8 187.26,-113.8 187.26,-149.8"/>
<text text-anchor="middle" x="144" y="-127.6" font-family="Times,serif" font-size="14.00">CoreModule</text>
</g>
<!-- LoginComponent&#45;&gt;CoreModule -->
<g id="edge1" class="edge">
<title>LoginComponent&#45;&gt;CoreModule</title>
<path fill="none" stroke="black" d="M167.5,-84.91C167.5,-84.91 167.5,-103.79 167.5,-103.79"/>
<polygon fill="black" stroke="black" points="164,-103.79 167.5,-113.79 171,-103.79 164,-103.79"/>
</g>
<!-- LayoutModule  -->
<g id="node4" class="node">
<title>LayoutModule </title>
<polygon fill="#fb8072" stroke="black" points="262.21,-214.8 159.79,-214.8 159.79,-178.8 262.21,-178.8 262.21,-214.8"/>
<text text-anchor="middle" x="211" y="-192.6" font-family="Times,serif" font-size="14.00">LayoutModule </text>
</g>
<!-- CoreModule&#45;&gt;LayoutModule  -->
<g id="edge3" class="edge">
<title>CoreModule&#45;&gt;LayoutModule </title>
<path fill="none" stroke="black" stroke-dasharray="5,2" d="M173.51,-149.91C173.51,-149.91 173.51,-168.79 173.51,-168.79"/>
<polygon fill="black" stroke="black" points="170.01,-168.79 173.51,-178.79 177.01,-168.79 170.01,-168.79"/>
</g>
<!-- LoginComponent  -->
<g id="node5" class="node">
<title>LoginComponent </title>
<polygon fill="#fb8072" stroke="black" points="142.28,-214.8 23.72,-214.8 23.72,-178.8 142.28,-178.8 142.28,-214.8"/>
<text text-anchor="middle" x="83" y="-192.6" font-family="Times,serif" font-size="14.00">LoginComponent </text>
</g>
<!-- CoreModule&#45;&gt;LoginComponent  -->
<g id="edge4" class="edge">
<title>CoreModule&#45;&gt;LoginComponent </title>
<path fill="none" stroke="black" stroke-dasharray="5,2" d="M121.38,-149.91C121.38,-149.91 121.38,-168.79 121.38,-168.79"/>
<polygon fill="black" stroke="black" points="117.88,-168.79 121.38,-178.79 124.88,-168.79 117.88,-168.79"/>
</g>
<!-- LayoutModule -->
<g id="node3" class="node">
<title>LayoutModule</title>
<polygon fill="#8dd3c7" stroke="black" points="123.71,-84.8 120.71,-88.8 99.71,-88.8 96.71,-84.8 24.29,-84.8 24.29,-48.8 123.71,-48.8 123.71,-84.8"/>
<text text-anchor="middle" x="74" y="-62.6" font-family="Times,serif" font-size="14.00">LayoutModule</text>
</g>
<!-- LayoutModule&#45;&gt;CoreModule -->
<g id="edge2" class="edge">
<title>LayoutModule&#45;&gt;CoreModule</title>
<path fill="none" stroke="black" d="M112.11,-84.91C112.11,-84.91 112.11,-103.79 112.11,-103.79"/>
<polygon fill="black" stroke="black" points="108.61,-103.79 112.11,-113.79 115.61,-103.79 108.61,-103.79"/>
</g>
</g>
</svg>
