<?xml version="1.0" encoding="UTF-8" standalone="no"?>
<!DOCTYPE svg PUBLIC "-//W3C//DTD SVG 1.1//EN"
 "http://www.w3.org/Graphics/SVG/1.1/DTD/svg11.dtd">
<!-- Generated by graphviz version 2.47.3 (20210619.1520)
 -->
<!-- Title: dependencies Pages: 1 -->
<svg width="383pt" height="247pt"
 viewBox="0.00 0.00 383.00 246.80" xmlns="http://www.w3.org/2000/svg" xmlns:xlink="http://www.w3.org/1999/xlink">
<g id="graph0" class="graph" transform="scale(1 1) rotate(0) translate(4 242.8)">
<title>dependencies</title>
<polygon fill="white" stroke="transparent" points="-4,4 -4,-242.8 379,-242.8 379,4 -4,4"/>
<text text-anchor="middle" x="187.5" y="-8.2" font-family="sans-serif" font-size="14.00">dependencies</text>
<g id="clust1" class="cluster">
<title>cluster_MaterialModule</title>
<polygon fill="none" stroke="black" stroke-dasharray="1,5" points="8,-32.8 8,-230.8 367,-230.8 367,-32.8 8,-32.8"/>
</g>
<g id="clust3" class="cluster">
<title>cluster_MaterialModule_imports</title>
<polygon fill="none" stroke="black" points="87,-40.8 87,-157.8 295,-157.8 295,-40.8 87,-40.8"/>
</g>
<g id="clust4" class="cluster">
<title>cluster_MaterialModule_exports</title>
<polygon fill="none" stroke="black" points="16,-170.8 16,-222.8 359,-222.8 359,-170.8 16,-170.8"/>
</g>
<!-- CardsModule -->
<g id="node1" class="node">
<title>CardsModule</title>
<polygon fill="#8dd3c7" stroke="black" points="287.21,-84.8 284.21,-88.8 263.21,-88.8 260.21,-84.8 194.79,-84.8 194.79,-48.8 287.21,-48.8 287.21,-84.8"/>
<text text-anchor="middle" x="241" y="-62.6" font-family="Times,serif" font-size="14.00">CardsModule</text>
</g>
<!-- MaterialModule -->
<g id="node2" class="node">
<title>MaterialModule</title>
<polygon fill="#8dd3c7" stroke="black" points="235.47,-149.8 232.47,-153.8 211.47,-153.8 208.47,-149.8 128.53,-149.8 128.53,-113.8 235.47,-113.8 235.47,-149.8"/>
<text text-anchor="middle" x="182" y="-127.6" font-family="Times,serif" font-size="14.00">MaterialModule</text>
</g>
<!-- CardsModule&#45;&gt;MaterialModule -->
<g id="edge1" class="edge">
<title>CardsModule&#45;&gt;MaterialModule</title>
<path fill="none" stroke="black" d="M208.43,-84.91C208.43,-84.91 208.43,-103.79 208.43,-103.79"/>
<polygon fill="black" stroke="black" points="204.93,-103.79 208.43,-113.79 211.93,-103.79 204.93,-103.79"/>
</g>
<!-- MaterialModule&#45;&gt;MaterialModule -->
<g id="edge2" class="edge">
<title>MaterialModule&#45;&gt;MaterialModule</title>
<path fill="none" stroke="black" d="M221.96,-113.56C221.96,-106.37 221.96,-99.8 221.96,-99.8 221.96,-99.8 246.19,-99.8 246.19,-99.8 246.19,-99.8 246.19,-164.8 246.19,-164.8 246.19,-164.8 199.83,-164.8 199.83,-164.8 199.83,-164.8 199.83,-159.84 199.83,-159.84"/>
<polygon fill="black" stroke="black" points="203.33,-159.84 199.83,-149.84 196.33,-159.84 203.33,-159.84"/>
</g>
<!-- CardsModule  -->
<g id="node4" class="node">
<title>CardsModule </title>
<polygon fill="#fb8072" stroke="black" points="350.71,-214.8 255.29,-214.8 255.29,-178.8 350.71,-178.8 350.71,-214.8"/>
<text text-anchor="middle" x="303" y="-192.6" font-family="Times,serif" font-size="14.00">CardsModule </text>
</g>
<!-- MaterialModule&#45;&gt;CardsModule  -->
<g id="edge4" class="edge">
<title>MaterialModule&#45;&gt;CardsModule </title>
<path fill="none" stroke="black" stroke-dasharray="5,2" d="M235.64,-131.8C254.52,-131.8 271.12,-131.8 271.12,-131.8 271.12,-131.8 271.12,-168.69 271.12,-168.69"/>
<polygon fill="black" stroke="black" points="267.63,-168.69 271.12,-178.69 274.63,-168.69 267.63,-168.69"/>
</g>
<!-- MaterialModule  -->
<g id="node5" class="node">
<title>MaterialModule </title>
<polygon fill="#fb8072" stroke="black" points="237.47,-214.8 126.53,-214.8 126.53,-178.8 237.47,-178.8 237.47,-214.8"/>
<text text-anchor="middle" x="182" y="-192.6" font-family="Times,serif" font-size="14.00">MaterialModule </text>
</g>
<!-- MaterialModule&#45;&gt;MaterialModule  -->
<g id="edge5" class="edge">
<title>MaterialModule&#45;&gt;MaterialModule </title>
<path fill="none" stroke="black" stroke-dasharray="5,2" d="M164.17,-149.91C164.17,-149.91 164.17,-168.79 164.17,-168.79"/>
<polygon fill="black" stroke="black" points="160.67,-168.79 164.17,-178.79 167.67,-168.79 160.67,-168.79"/>
</g>
<!-- TabModule  -->
<g id="node6" class="node">
<title>TabModule </title>
<polygon fill="#fb8072" stroke="black" points="108.32,-214.8 23.68,-214.8 23.68,-178.8 108.32,-178.8 108.32,-214.8"/>
<text text-anchor="middle" x="66" y="-192.6" font-family="Times,serif" font-size="14.00">TabModule </text>
</g>
<!-- MaterialModule&#45;&gt;TabModule  -->
<g id="edge6" class="edge">
<title>MaterialModule&#45;&gt;TabModule </title>
<path fill="none" stroke="black" stroke-dasharray="5,2" d="M128.11,-131.8C113.62,-131.8 101.88,-131.8 101.88,-131.8 101.88,-131.8 101.88,-168.69 101.88,-168.69"/>
<polygon fill="black" stroke="black" points="98.38,-168.69 101.88,-178.69 105.38,-168.69 98.38,-168.69"/>
</g>
<!-- TabModule -->
<g id="node3" class="node">
<title>TabModule</title>
<polygon fill="#8dd3c7" stroke="black" points="176.82,-84.8 173.82,-88.8 152.82,-88.8 149.82,-84.8 95.18,-84.8 95.18,-48.8 176.82,-48.8 176.82,-84.8"/>
<text text-anchor="middle" x="136" y="-62.6" font-family="Times,serif" font-size="14.00">TabModule</text>
</g>
<!-- TabModule&#45;&gt;MaterialModule -->
<g id="edge3" class="edge">
<title>TabModule&#45;&gt;MaterialModule</title>
<path fill="none" stroke="black" d="M152.59,-84.91C152.59,-84.91 152.59,-103.79 152.59,-103.79"/>
<polygon fill="black" stroke="black" points="149.09,-103.79 152.59,-113.79 156.09,-103.79 149.09,-103.79"/>
</g>
</g>
</svg>
