<?xml version="1.0" encoding="UTF-8" standalone="no"?>
<!DOCTYPE svg PUBLIC "-//W3C//DTD SVG 1.1//EN"
 "http://www.w3.org/Graphics/SVG/1.1/DTD/svg11.dtd">
<!-- Generated by graphviz version 2.47.3 (20210619.1520)
 -->
<!-- Title: dependencies Pages: 1 -->
<svg width="496pt" height="174pt"
 viewBox="0.00 0.00 496.00 173.80" xmlns="http://www.w3.org/2000/svg" xmlns:xlink="http://www.w3.org/1999/xlink">
<g id="graph0" class="graph" transform="scale(1 1) rotate(0) translate(4 169.8)">
<title>dependencies</title>
<polygon fill="white" stroke="transparent" points="-4,4 -4,-169.8 492,-169.8 492,4 -4,4"/>
<text text-anchor="middle" x="244" y="-8.2" font-family="sans-serif" font-size="14.00">dependencies</text>
<g id="clust1" class="cluster">
<title>cluster_AnalyticsModule</title>
<polygon fill="none" stroke="black" stroke-dasharray="1,5" points="8,-32.8 8,-157.8 480,-157.8 480,-32.8 8,-32.8"/>
</g>
<g id="clust4" class="cluster">
<title>cluster_AnalyticsModule_imports</title>
<polygon fill="none" stroke="black" points="182,-40.8 182,-92.8 472,-92.8 472,-40.8 182,-40.8"/>
</g>
<g id="clust2" class="cluster">
<title>cluster_AnalyticsModule_declarations</title>
<polygon fill="none" stroke="black" points="16,-40.8 16,-92.8 174,-92.8 174,-40.8 16,-40.8"/>
</g>
<!-- DashboardComponent -->
<g id="node1" class="node">
<title>DashboardComponent</title>
<polygon fill="#ffffb3" stroke="black" points="165.97,-84.8 24.03,-84.8 24.03,-48.8 165.97,-48.8 165.97,-84.8"/>
<text text-anchor="middle" x="95" y="-62.6" font-family="Times,serif" font-size="14.00">DashboardComponent</text>
</g>
<!-- AnalyticsModule -->
<g id="node2" class="node">
<title>AnalyticsModule</title>
<polygon fill="#8dd3c7" stroke="black" points="295.7,-149.8 292.7,-153.8 271.7,-153.8 268.7,-149.8 182.3,-149.8 182.3,-113.8 295.7,-113.8 295.7,-149.8"/>
<text text-anchor="middle" x="239" y="-127.6" font-family="Times,serif" font-size="14.00">AnalyticsModule</text>
</g>
<!-- DashboardComponent&#45;&gt;AnalyticsModule -->
<g id="edge1" class="edge">
<title>DashboardComponent&#45;&gt;AnalyticsModule</title>
<path fill="none" stroke="black" d="M166.33,-66.8C177.85,-66.8 186.09,-66.8 186.09,-66.8 186.09,-66.8 186.09,-103.69 186.09,-103.69"/>
<polygon fill="black" stroke="black" points="182.59,-103.69 186.09,-113.69 189.59,-103.69 182.59,-103.69"/>
</g>
<!-- AnalyticsRoutingModule -->
<g id="node3" class="node">
<title>AnalyticsRoutingModule</title>
<polygon fill="#8dd3c7" stroke="black" points="464.32,-84.8 461.32,-88.8 440.32,-88.8 437.32,-84.8 305.68,-84.8 305.68,-48.8 464.32,-48.8 464.32,-84.8"/>
<text text-anchor="middle" x="385" y="-62.6" font-family="Times,serif" font-size="14.00">AnalyticsRoutingModule</text>
</g>
<!-- AnalyticsRoutingModule&#45;&gt;AnalyticsModule -->
<g id="edge2" class="edge">
<title>AnalyticsRoutingModule&#45;&gt;AnalyticsModule</title>
<path fill="none" stroke="black" d="M305.64,-66.8C297.37,-66.8 291.91,-66.8 291.91,-66.8 291.91,-66.8 291.91,-103.69 291.91,-103.69"/>
<polygon fill="black" stroke="black" points="288.41,-103.69 291.91,-113.69 295.41,-103.69 288.41,-103.69"/>
</g>
<!-- SharedModule -->
<g id="node4" class="node">
<title>SharedModule</title>
<polygon fill="#8dd3c7" stroke="black" points="288.42,-84.8 285.42,-88.8 264.42,-88.8 261.42,-84.8 189.58,-84.8 189.58,-48.8 288.42,-48.8 288.42,-84.8"/>
<text text-anchor="middle" x="239" y="-62.6" font-family="Times,serif" font-size="14.00">SharedModule</text>
</g>
<!-- SharedModule&#45;&gt;AnalyticsModule -->
<g id="edge3" class="edge">
<title>SharedModule&#45;&gt;AnalyticsModule</title>
<path fill="none" stroke="black" d="M239,-84.91C239,-84.91 239,-103.79 239,-103.79"/>
<polygon fill="black" stroke="black" points="235.5,-103.79 239,-113.79 242.5,-103.79 235.5,-103.79"/>
</g>
</g>
</svg>
