<?xml version="1.0" encoding="UTF-8" standalone="no"?>
<!DOCTYPE svg PUBLIC "-//W3C//DTD SVG 1.1//EN"
 "http://www.w3.org/Graphics/SVG/1.1/DTD/svg11.dtd">
<!-- Generated by graphviz version 2.47.3 (20210619.1520)
 -->
<!-- Title: dependencies Pages: 1 -->
<svg width="502pt" height="247pt"
 viewBox="0.00 0.00 502.00 246.80" xmlns="http://www.w3.org/2000/svg" xmlns:xlink="http://www.w3.org/1999/xlink">
<g id="graph0" class="graph" transform="scale(1 1) rotate(0) translate(4 242.8)">
<title>dependencies</title>
<polygon fill="white" stroke="transparent" points="-4,4 -4,-242.8 498,-242.8 498,4 -4,4"/>
<text text-anchor="middle" x="247" y="-8.2" font-family="sans-serif" font-size="14.00">dependencies</text>
<g id="clust1" class="cluster">
<title>cluster_CardsModule</title>
<polygon fill="none" stroke="black" stroke-dasharray="1,5" points="8,-32.8 8,-230.8 486,-230.8 486,-32.8 8,-32.8"/>
</g>
<g id="clust2" class="cluster">
<title>cluster_CardsModule_declarations</title>
<polygon fill="none" stroke="black" points="146,-40.8 146,-92.8 478,-92.8 478,-40.8 146,-40.8"/>
</g>
<g id="clust6" class="cluster">
<title>cluster_CardsModule_exports</title>
<polygon fill="none" stroke="black" points="78,-170.8 78,-222.8 416,-222.8 416,-170.8 78,-170.8"/>
</g>
<g id="clust5" class="cluster">
<title>cluster_CardsModule_imports</title>
<polygon fill="none" stroke="black" points="16,-40.8 16,-92.8 138,-92.8 138,-40.8 16,-40.8"/>
</g>
<!-- GeneralCardComponent -->
<g id="node1" class="node">
<title>GeneralCardComponent</title>
<polygon fill="#ffffb3" stroke="black" points="470.35,-84.8 317.65,-84.8 317.65,-48.8 470.35,-48.8 470.35,-84.8"/>
<text text-anchor="middle" x="394" y="-62.6" font-family="Times,serif" font-size="14.00">GeneralCardComponent</text>
</g>
<!-- CardsModule -->
<g id="node3" class="node">
<title>CardsModule</title>
<polygon fill="#8dd3c7" stroke="black" points="273.21,-149.8 270.21,-153.8 249.21,-153.8 246.21,-149.8 180.79,-149.8 180.79,-113.8 273.21,-113.8 273.21,-149.8"/>
<text text-anchor="middle" x="227" y="-127.6" font-family="Times,serif" font-size="14.00">CardsModule</text>
</g>
<!-- GeneralCardComponent&#45;&gt;CardsModule -->
<g id="edge1" class="edge">
<title>GeneralCardComponent&#45;&gt;CardsModule</title>
<path fill="none" stroke="black" d="M362.88,-84.91C362.88,-104.14 362.88,-131.8 362.88,-131.8 362.88,-131.8 283.38,-131.8 283.38,-131.8"/>
<polygon fill="black" stroke="black" points="283.38,-128.3 273.38,-131.8 283.38,-135.3 283.38,-128.3"/>
</g>
<!-- ModalCardComponent -->
<g id="node2" class="node">
<title>ModalCardComponent</title>
<polygon fill="#ffffb3" stroke="black" points="299.59,-84.8 154.41,-84.8 154.41,-48.8 299.59,-48.8 299.59,-84.8"/>
<text text-anchor="middle" x="227" y="-62.6" font-family="Times,serif" font-size="14.00">ModalCardComponent</text>
</g>
<!-- ModalCardComponent&#45;&gt;CardsModule -->
<g id="edge2" class="edge">
<title>ModalCardComponent&#45;&gt;CardsModule</title>
<path fill="none" stroke="black" d="M227,-84.91C227,-84.91 227,-103.79 227,-103.79"/>
<polygon fill="black" stroke="black" points="223.5,-103.79 227,-113.79 230.5,-103.79 223.5,-103.79"/>
</g>
<!-- GeneralCardComponent  -->
<g id="node5" class="node">
<title>GeneralCardComponent </title>
<polygon fill="#fb8072" stroke="black" points="408.35,-214.8 251.65,-214.8 251.65,-178.8 408.35,-178.8 408.35,-214.8"/>
<text text-anchor="middle" x="330" y="-192.6" font-family="Times,serif" font-size="14.00">GeneralCardComponent </text>
</g>
<!-- CardsModule&#45;&gt;GeneralCardComponent  -->
<g id="edge4" class="edge">
<title>CardsModule&#45;&gt;GeneralCardComponent </title>
<path fill="none" stroke="black" stroke-dasharray="5,2" d="M262.47,-149.91C262.47,-149.91 262.47,-168.79 262.47,-168.79"/>
<polygon fill="black" stroke="black" points="258.97,-168.79 262.47,-178.79 265.97,-168.79 258.97,-168.79"/>
</g>
<!-- ModalCardComponent  -->
<g id="node6" class="node">
<title>ModalCardComponent </title>
<polygon fill="#fb8072" stroke="black" points="234.09,-214.8 85.91,-214.8 85.91,-178.8 234.09,-178.8 234.09,-214.8"/>
<text text-anchor="middle" x="160" y="-192.6" font-family="Times,serif" font-size="14.00">ModalCardComponent </text>
</g>
<!-- CardsModule&#45;&gt;ModalCardComponent  -->
<g id="edge5" class="edge">
<title>CardsModule&#45;&gt;ModalCardComponent </title>
<path fill="none" stroke="black" stroke-dasharray="5,2" d="M207.6,-149.91C207.6,-149.91 207.6,-168.79 207.6,-168.79"/>
<polygon fill="black" stroke="black" points="204.1,-168.79 207.6,-178.79 211.1,-168.79 204.1,-168.79"/>
</g>
<!-- MaterialModule -->
<g id="node4" class="node">
<title>MaterialModule</title>
<polygon fill="#8dd3c7" stroke="black" points="130.47,-84.8 127.47,-88.8 106.47,-88.8 103.47,-84.8 23.53,-84.8 23.53,-48.8 130.47,-48.8 130.47,-84.8"/>
<text text-anchor="middle" x="77" y="-62.6" font-family="Times,serif" font-size="14.00">MaterialModule</text>
</g>
<!-- MaterialModule&#45;&gt;CardsModule -->
<g id="edge3" class="edge">
<title>MaterialModule&#45;&gt;CardsModule</title>
<path fill="none" stroke="black" d="M108.09,-84.91C108.09,-104.14 108.09,-131.8 108.09,-131.8 108.09,-131.8 170.69,-131.8 170.69,-131.8"/>
<polygon fill="black" stroke="black" points="170.69,-135.3 180.69,-131.8 170.69,-128.3 170.69,-135.3"/>
</g>
</g>
</svg>
