<?xml version="1.0" encoding="UTF-8" standalone="no"?>
<!DOCTYPE svg PUBLIC "-//W3C//DTD SVG 1.1//EN"
 "http://www.w3.org/Graphics/SVG/1.1/DTD/svg11.dtd">
<!-- Generated by graphviz version 2.47.3 (20210619.1520)
 -->
<!-- Title: dependencies Pages: 1 -->
<svg width="401pt" height="247pt"
 viewBox="0.00 0.00 401.00 246.80" xmlns="http://www.w3.org/2000/svg" xmlns:xlink="http://www.w3.org/1999/xlink">
<g id="graph0" class="graph" transform="scale(1 1) rotate(0) translate(4 242.8)">
<title>dependencies</title>
<polygon fill="white" stroke="transparent" points="-4,4 -4,-242.8 397,-242.8 397,4 -4,4"/>
<text text-anchor="middle" x="196.5" y="-8.2" font-family="sans-serif" font-size="14.00">dependencies</text>
<g id="clust1" class="cluster">
<title>cluster_TabModule</title>
<polygon fill="none" stroke="black" stroke-dasharray="1,5" points="8,-32.8 8,-230.8 385,-230.8 385,-32.8 8,-32.8"/>
</g>
<g id="clust2" class="cluster">
<title>cluster_TabModule_declarations</title>
<polygon fill="none" stroke="black" points="257,-40.8 257,-92.8 377,-92.8 377,-40.8 257,-40.8"/>
</g>
<g id="clust4" class="cluster">
<title>cluster_TabModule_imports</title>
<polygon fill="none" stroke="black" points="16,-40.8 16,-92.8 249,-92.8 249,-40.8 16,-40.8"/>
</g>
<g id="clust5" class="cluster">
<title>cluster_TabModule_exports</title>
<polygon fill="none" stroke="black" points="134,-170.8 134,-222.8 256,-222.8 256,-170.8 134,-170.8"/>
</g>
<!-- TabComponent -->
<g id="node1" class="node">
<title>TabComponent</title>
<polygon fill="#ffffb3" stroke="black" points="368.6,-84.8 265.4,-84.8 265.4,-48.8 368.6,-48.8 368.6,-84.8"/>
<text text-anchor="middle" x="317" y="-62.6" font-family="Times,serif" font-size="14.00">TabComponent</text>
</g>
<!-- TabModule -->
<g id="node2" class="node">
<title>TabModule</title>
<polygon fill="#8dd3c7" stroke="black" points="235.82,-149.8 232.82,-153.8 211.82,-153.8 208.82,-149.8 154.18,-149.8 154.18,-113.8 235.82,-113.8 235.82,-149.8"/>
<text text-anchor="middle" x="195" y="-127.6" font-family="Times,serif" font-size="14.00">TabModule</text>
</g>
<!-- TabComponent&#45;&gt;TabModule -->
<g id="edge1" class="edge">
<title>TabComponent&#45;&gt;TabModule</title>
<path fill="none" stroke="black" d="M317,-84.91C317,-104.14 317,-131.8 317,-131.8 317,-131.8 245.96,-131.8 245.96,-131.8"/>
<polygon fill="black" stroke="black" points="245.96,-128.3 235.96,-131.8 245.96,-135.3 245.96,-128.3"/>
</g>
<!-- TabComponent  -->
<g id="node5" class="node">
<title>TabComponent </title>
<polygon fill="#fb8072" stroke="black" points="248.1,-214.8 141.9,-214.8 141.9,-178.8 248.1,-178.8 248.1,-214.8"/>
<text text-anchor="middle" x="195" y="-192.6" font-family="Times,serif" font-size="14.00">TabComponent </text>
</g>
<!-- TabModule&#45;&gt;TabComponent  -->
<g id="edge4" class="edge">
<title>TabModule&#45;&gt;TabComponent </title>
<path fill="none" stroke="black" stroke-dasharray="5,2" d="M195,-149.91C195,-149.91 195,-168.79 195,-168.79"/>
<polygon fill="black" stroke="black" points="191.5,-168.79 195,-178.79 198.5,-168.79 191.5,-168.79"/>
</g>
<!-- CardsModule -->
<g id="node3" class="node">
<title>CardsModule</title>
<polygon fill="#8dd3c7" stroke="black" points="241.21,-84.8 238.21,-88.8 217.21,-88.8 214.21,-84.8 148.79,-84.8 148.79,-48.8 241.21,-48.8 241.21,-84.8"/>
<text text-anchor="middle" x="195" y="-62.6" font-family="Times,serif" font-size="14.00">CardsModule</text>
</g>
<!-- CardsModule&#45;&gt;TabModule -->
<g id="edge2" class="edge">
<title>CardsModule&#45;&gt;TabModule</title>
<path fill="none" stroke="black" d="M195,-84.91C195,-84.91 195,-103.79 195,-103.79"/>
<polygon fill="black" stroke="black" points="191.5,-103.79 195,-113.79 198.5,-103.79 191.5,-103.79"/>
</g>
<!-- MaterialModule -->
<g id="node4" class="node">
<title>MaterialModule</title>
<polygon fill="#8dd3c7" stroke="black" points="130.47,-84.8 127.47,-88.8 106.47,-88.8 103.47,-84.8 23.53,-84.8 23.53,-48.8 130.47,-48.8 130.47,-84.8"/>
<text text-anchor="middle" x="77" y="-62.6" font-family="Times,serif" font-size="14.00">MaterialModule</text>
</g>
<!-- MaterialModule&#45;&gt;TabModule -->
<g id="edge3" class="edge">
<title>MaterialModule&#45;&gt;TabModule</title>
<path fill="none" stroke="black" d="M77,-84.91C77,-104.14 77,-131.8 77,-131.8 77,-131.8 144.06,-131.8 144.06,-131.8"/>
<polygon fill="black" stroke="black" points="144.06,-135.3 154.06,-131.8 144.06,-128.3 144.06,-135.3"/>
</g>
</g>
</svg>
