<?xml version="1.0" encoding="UTF-8" standalone="no"?>
<!DOCTYPE svg PUBLIC "-//W3C//DTD SVG 1.1//EN"
 "http://www.w3.org/Graphics/SVG/1.1/DTD/svg11.dtd">
<!-- Generated by graphviz version 2.47.3 (20210619.1520)
 -->
<!-- Title: dependencies Pages: 1 -->
<svg width="753pt" height="174pt"
 viewBox="0.00 0.00 753.00 173.80" xmlns="http://www.w3.org/2000/svg" xmlns:xlink="http://www.w3.org/1999/xlink">
<g id="graph0" class="graph" transform="scale(1 1) rotate(0) translate(4 169.8)">
<title>dependencies</title>
<polygon fill="white" stroke="transparent" points="-4,4 -4,-169.8 749,-169.8 749,4 -4,4"/>
<text text-anchor="middle" x="372.5" y="-8.2" font-family="sans-serif" font-size="14.00">dependencies</text>
<g id="clust1" class="cluster">
<title>cluster_TaskModule</title>
<polygon fill="none" stroke="black" stroke-dasharray="1,5" points="8,-32.8 8,-157.8 737,-157.8 737,-32.8 8,-32.8"/>
</g>
<g id="clust2" class="cluster">
<title>cluster_TaskModule_declarations</title>
<polygon fill="none" stroke="black" points="288,-40.8 288,-92.8 729,-92.8 729,-40.8 288,-40.8"/>
</g>
<g id="clust6" class="cluster">
<title>cluster_TaskModule_imports</title>
<polygon fill="none" stroke="black" points="16,-40.8 16,-92.8 280,-92.8 280,-40.8 16,-40.8"/>
</g>
<!-- AddTaskComponent -->
<g id="node1" class="node">
<title>AddTaskComponent</title>
<polygon fill="#ffffb3" stroke="black" points="721.15,-84.8 588.85,-84.8 588.85,-48.8 721.15,-48.8 721.15,-84.8"/>
<text text-anchor="middle" x="655" y="-62.6" font-family="Times,serif" font-size="14.00">AddTaskComponent</text>
</g>
<!-- TaskModule -->
<g id="node4" class="node">
<title>TaskModule</title>
<polygon fill="#8dd3c7" stroke="black" points="396.26,-149.8 393.26,-153.8 372.26,-153.8 369.26,-149.8 309.74,-149.8 309.74,-113.8 396.26,-113.8 396.26,-149.8"/>
<text text-anchor="middle" x="353" y="-127.6" font-family="Times,serif" font-size="14.00">TaskModule</text>
</g>
<!-- AddTaskComponent&#45;&gt;TaskModule -->
<g id="edge1" class="edge">
<title>AddTaskComponent&#45;&gt;TaskModule</title>
<path fill="none" stroke="black" d="M655,-85.08C655,-106.12 655,-137.8 655,-137.8 655,-137.8 406.27,-137.8 406.27,-137.8"/>
<polygon fill="black" stroke="black" points="406.27,-134.3 396.27,-137.8 406.27,-141.3 406.27,-134.3"/>
</g>
<!-- TaskDetailComponent -->
<g id="node2" class="node">
<title>TaskDetailComponent</title>
<polygon fill="#ffffb3" stroke="black" points="570.25,-84.8 427.75,-84.8 427.75,-48.8 570.25,-48.8 570.25,-84.8"/>
<text text-anchor="middle" x="499" y="-62.6" font-family="Times,serif" font-size="14.00">TaskDetailComponent</text>
</g>
<!-- TaskDetailComponent&#45;&gt;TaskModule -->
<g id="edge2" class="edge">
<title>TaskDetailComponent&#45;&gt;TaskModule</title>
<path fill="none" stroke="black" d="M499,-84.82C499,-102.17 499,-125.8 499,-125.8 499,-125.8 406.41,-125.8 406.41,-125.8"/>
<polygon fill="black" stroke="black" points="406.41,-122.3 396.41,-125.8 406.41,-129.3 406.41,-122.3"/>
</g>
<!-- TasksComponent -->
<g id="node3" class="node">
<title>TasksComponent</title>
<polygon fill="#ffffb3" stroke="black" points="409.99,-84.8 296.01,-84.8 296.01,-48.8 409.99,-48.8 409.99,-84.8"/>
<text text-anchor="middle" x="353" y="-62.6" font-family="Times,serif" font-size="14.00">TasksComponent</text>
</g>
<!-- TasksComponent&#45;&gt;TaskModule -->
<g id="edge3" class="edge">
<title>TasksComponent&#45;&gt;TaskModule</title>
<path fill="none" stroke="black" d="M353,-84.91C353,-84.91 353,-103.79 353,-103.79"/>
<polygon fill="black" stroke="black" points="349.5,-103.79 353,-113.79 356.5,-103.79 349.5,-103.79"/>
</g>
<!-- SharedModule -->
<g id="node5" class="node">
<title>SharedModule</title>
<polygon fill="#8dd3c7" stroke="black" points="272.42,-84.8 269.42,-88.8 248.42,-88.8 245.42,-84.8 173.58,-84.8 173.58,-48.8 272.42,-48.8 272.42,-84.8"/>
<text text-anchor="middle" x="223" y="-62.6" font-family="Times,serif" font-size="14.00">SharedModule</text>
</g>
<!-- SharedModule&#45;&gt;TaskModule -->
<g id="edge4" class="edge">
<title>SharedModule&#45;&gt;TaskModule</title>
<path fill="none" stroke="black" d="M223,-84.82C223,-102.17 223,-125.8 223,-125.8 223,-125.8 299.71,-125.8 299.71,-125.8"/>
<polygon fill="black" stroke="black" points="299.71,-129.3 309.71,-125.8 299.71,-122.3 299.71,-129.3"/>
</g>
<!-- TaskRoutingModule -->
<g id="node6" class="node">
<title>TaskRoutingModule</title>
<polygon fill="#8dd3c7" stroke="black" points="155.88,-84.8 152.88,-88.8 131.88,-88.8 128.88,-84.8 24.12,-84.8 24.12,-48.8 155.88,-48.8 155.88,-84.8"/>
<text text-anchor="middle" x="90" y="-62.6" font-family="Times,serif" font-size="14.00">TaskRoutingModule</text>
</g>
<!-- TaskRoutingModule&#45;&gt;TaskModule -->
<g id="edge5" class="edge">
<title>TaskRoutingModule&#45;&gt;TaskModule</title>
<path fill="none" stroke="black" d="M90,-85.08C90,-106.12 90,-137.8 90,-137.8 90,-137.8 299.57,-137.8 299.57,-137.8"/>
<polygon fill="black" stroke="black" points="299.57,-141.3 309.57,-137.8 299.57,-134.3 299.57,-141.3"/>
</g>
</g>
</svg>
